<svg width="195" height="41" viewBox="0 0 195 41" fill="none" xmlns="http://www.w3.org/2000/svg">
<path d="M64.2438 39.8437C64.4578 39.2168 64.7024 38.5135 64.9776 37.7185C65.2528 36.9235 65.528 36.2049 65.8032 35.5627H67.0722C67.3016 36.266 67.5462 37.0152 67.8367 37.8102C68.1272 38.6053 68.3871 39.278 68.6164 39.8284H67.7144C67.5156 39.3544 67.378 39.0028 67.3016 38.7581H65.4363C65.3293 39.0792 65.2223 39.4309 65.0999 39.8284H64.2438V39.8437ZM65.6351 38.0854H67.0569C66.8276 37.4433 66.6288 36.8317 66.4607 36.266H66.2925C66.0937 36.7706 65.8644 37.3821 65.6351 38.0854Z" fill="white"/>
<path d="M68.8006 37.6725C68.8006 37.3209 68.8311 37.0304 68.877 36.7704C68.9229 36.5105 69.0146 36.3118 69.1216 36.1436C69.2287 35.9754 69.3663 35.8378 69.5344 35.7461C69.7026 35.6391 69.8861 35.5779 70.1001 35.532C70.3142 35.4862 70.5588 35.4709 70.834 35.4709C71.1092 35.4709 71.3538 35.4862 71.5679 35.532C71.7819 35.5779 71.9654 35.6391 72.1336 35.7461C72.3018 35.8531 72.4394 35.9754 72.5464 36.1436C72.6534 36.3118 72.7299 36.5258 72.791 36.7704C72.8522 37.0151 72.8675 37.3209 72.8675 37.6725C72.8675 38.1159 72.8216 38.4675 72.7451 38.7733C72.6687 39.0638 72.5311 39.2931 72.3629 39.4766C72.1794 39.6448 71.9807 39.7671 71.7361 39.8435C71.4914 39.92 71.201 39.9506 70.834 39.9506C70.5588 39.9506 70.3142 39.9353 70.1001 39.8894C69.8861 39.8435 69.7026 39.7671 69.5344 39.6754C69.3663 39.5683 69.2287 39.4307 69.1216 39.2626C69.0146 39.0944 68.9382 38.8803 68.877 38.6204C68.8159 38.3605 68.8006 38.0547 68.8006 37.7031V37.6725ZM69.6873 37.1221C69.6873 37.275 69.672 37.4585 69.672 37.6725C69.672 37.8865 69.672 38.0853 69.6873 38.2382C69.6873 38.3911 69.7332 38.5287 69.7638 38.6357C69.7944 38.758 69.8402 38.8498 69.9014 38.9109C69.9625 38.9721 70.0237 39.0332 70.1154 39.0791C70.2072 39.125 70.3142 39.1555 70.4212 39.1708C70.5282 39.1861 70.6658 39.1861 70.834 39.1861C71.0022 39.1861 71.1398 39.1861 71.2468 39.1708C71.3538 39.1555 71.4609 39.125 71.5526 39.0791C71.6443 39.0332 71.7208 38.9874 71.7666 38.9109C71.8278 38.8345 71.8737 38.7427 71.9042 38.6357C71.9348 38.5134 71.9654 38.3911 71.9807 38.2382C71.9807 38.0853 71.996 37.9018 71.996 37.6725C71.996 37.4432 71.996 37.2597 71.9807 37.1221C71.9654 36.9845 71.9348 36.8316 71.9042 36.7246C71.8737 36.6176 71.8278 36.5258 71.7666 36.4494C71.7208 36.3882 71.6443 36.3271 71.5526 36.2965C71.4609 36.2659 71.3538 36.2353 71.2468 36.22C71.1398 36.2048 71.0022 36.2048 70.834 36.2048C70.6658 36.2048 70.5282 36.2048 70.4212 36.22C70.3142 36.2353 70.2072 36.2659 70.1154 36.2965C70.0237 36.3271 69.9472 36.3882 69.9014 36.4494C69.8555 36.5105 69.8096 36.6023 69.7638 36.7246C69.7179 36.8469 69.7026 36.9692 69.6873 37.1221Z" fill="white"/>
<path d="M74.9924 37.9328L76.6436 36.2204L77.087 36.6638L76.0014 37.9175L77.087 39.1865L76.6589 39.6451L74.9924 37.9175V37.9328ZM76.6589 37.9328L78.3101 36.2204L78.7535 36.6638L77.6679 37.9175L78.7535 39.1865L78.3254 39.6451L76.6589 37.9175V37.9328Z" fill="white"/>
<path d="M79.4567 35.5776H82.5298V36.2809H80.267V37.2747H81.7501C82.1476 37.2747 82.4228 37.3817 82.6062 37.611C82.7897 37.8251 82.8814 38.1614 82.8814 38.5895C82.8814 39.0482 82.7897 39.3693 82.6062 39.568C82.4228 39.7668 82.1476 39.8585 81.7959 39.8585H79.4567V35.5776ZM80.267 39.1552H81.6124C81.8877 39.1552 82.0253 38.9565 82.0253 38.5589C82.0253 38.1461 81.8876 37.9321 81.5972 37.9321H80.267V39.1552Z" fill="white"/>
<path d="M83.5849 38.8647C83.5849 38.6965 83.6002 38.5436 83.6461 38.4213C83.692 38.299 83.7378 38.2072 83.799 38.1308C83.8602 38.0543 83.9519 37.9932 84.0589 37.9626C84.1659 37.9167 84.273 37.8862 84.3953 37.8862C84.5023 37.8862 84.6399 37.8709 84.8081 37.8709C85.0374 37.8709 85.2973 37.9014 85.5878 37.9626C85.5878 37.825 85.5878 37.7027 85.5572 37.6262C85.5419 37.5498 85.4961 37.4734 85.4349 37.4275C85.3738 37.3816 85.2973 37.3358 85.2056 37.3205C85.1138 37.3052 84.9762 37.2899 84.8081 37.2899C84.4411 37.2899 84.1353 37.3358 83.8754 37.4275L83.7378 36.8006C84.1506 36.6936 84.5634 36.6325 84.9762 36.6325C85.2209 36.6325 85.4196 36.6477 85.5878 36.6936C85.756 36.7395 85.8936 36.8006 86.0159 36.8924C86.1382 36.9841 86.2147 37.1064 86.2758 37.2593C86.337 37.4122 86.3523 37.611 86.3523 37.8403V39.675C86.1535 39.7514 85.9242 39.8126 85.649 39.8584C85.3738 39.9043 85.1291 39.9349 84.8998 39.9349C84.4105 39.9349 84.0589 39.8584 83.8754 39.7056C83.692 39.5527 83.6002 39.2775 83.6002 38.8647H83.5849ZM84.3647 38.8341C84.3647 39.0328 84.3953 39.1551 84.4717 39.2163C84.5481 39.2775 84.701 39.308 84.9304 39.308C85.1444 39.308 85.3585 39.2775 85.5572 39.201V38.4519C85.389 38.4213 85.175 38.406 84.9304 38.406C84.8081 38.406 84.7163 38.406 84.6552 38.406C84.594 38.406 84.5329 38.4366 84.487 38.4671C84.4411 38.4977 84.3953 38.5436 84.38 38.5895C84.3647 38.6506 84.3494 38.7271 84.3494 38.8188L84.3647 38.8341Z" fill="white"/>
<path d="M87.131 39.8433V36.7243H87.8955V37.871H89.1186V36.7243H89.883V39.8433H89.1186V38.5131H87.8955V39.8433H87.131Z" fill="white"/>
<path d="M90.7237 39.8433V36.7243H91.4882V38.2226C91.7939 37.8863 92.1915 37.3817 92.696 36.7243H93.598C93.0018 37.5193 92.6043 38.0086 92.4208 38.1462C92.4972 38.1768 92.5584 38.2074 92.6042 38.2379C92.6501 38.2685 92.7266 38.3297 92.803 38.4061C92.8795 38.4826 92.9559 38.5743 93.0323 38.6966C93.1088 38.8189 93.2005 38.9718 93.3075 39.1553C93.4146 39.3387 93.5369 39.5834 93.6592 39.8433H92.7724C92.6501 39.5681 92.5278 39.354 92.4055 39.1706C92.2832 38.9871 92.1761 38.8495 92.0691 38.7425C91.9621 38.6354 91.8704 38.559 91.7786 38.5131C91.6869 38.4673 91.5952 38.4214 91.4729 38.4061V39.8586H90.7084L90.7237 39.8433Z" fill="white"/>
<path d="M96.045 39.1094C96.4273 38.0697 96.6413 36.8772 96.6872 35.5776H99.5157V39.1094H100.326L100.204 40.7759H99.4392V39.8432H96.2285V40.7759H95.4641L95.3265 39.1094H96.045ZM96.9318 39.1094H98.7053V36.2656H97.4363C97.3599 37.3817 97.1917 38.3143 96.9318 39.1094Z" fill="white"/>
<path d="M100.555 37.6725C100.555 37.3209 100.586 37.0304 100.632 36.7704C100.678 36.5105 100.769 36.3118 100.876 36.1436C100.983 35.9754 101.121 35.8378 101.289 35.7461C101.457 35.6391 101.641 35.5779 101.855 35.532C102.069 35.4862 102.313 35.4709 102.589 35.4709C102.864 35.4709 103.109 35.4862 103.323 35.532C103.537 35.5779 103.72 35.6391 103.888 35.7461C104.056 35.8531 104.194 35.9754 104.301 36.1436C104.408 36.3118 104.485 36.5258 104.546 36.7704C104.607 37.0151 104.622 37.3209 104.622 37.6725C104.622 38.1159 104.576 38.4675 104.5 38.7733C104.423 39.0638 104.286 39.2931 104.118 39.4766C103.934 39.6448 103.735 39.7671 103.491 39.8435C103.246 39.92 102.956 39.9506 102.589 39.9506C102.313 39.9506 102.069 39.9353 101.855 39.8894C101.641 39.8435 101.457 39.7671 101.289 39.6754C101.121 39.5683 100.983 39.4307 100.876 39.2626C100.769 39.0944 100.693 38.8803 100.632 38.6204C100.571 38.3605 100.555 38.0547 100.555 37.7031V37.6725ZM101.442 37.1221C101.442 37.275 101.427 37.4585 101.427 37.6725C101.427 37.8865 101.427 38.0853 101.442 38.2382C101.442 38.3911 101.488 38.5287 101.518 38.6357C101.549 38.758 101.595 38.8498 101.656 38.9109C101.717 38.9721 101.778 39.0332 101.87 39.0791C101.962 39.125 102.069 39.1555 102.176 39.1708C102.283 39.1861 102.42 39.1861 102.589 39.1861C102.757 39.1861 102.894 39.1861 103.001 39.1708C103.109 39.1555 103.216 39.125 103.307 39.0791C103.399 39.0332 103.475 38.9874 103.521 38.9109C103.582 38.8345 103.628 38.7427 103.659 38.6357C103.689 38.5134 103.72 38.3911 103.735 38.2382C103.735 38.0853 103.751 37.9018 103.751 37.6725C103.751 37.4432 103.751 37.2597 103.735 37.1221C103.72 36.9845 103.689 36.8316 103.659 36.7246C103.628 36.6176 103.582 36.5258 103.521 36.4494C103.475 36.3882 103.399 36.3271 103.307 36.2965C103.216 36.2659 103.109 36.2353 103.001 36.22C102.894 36.2048 102.757 36.2048 102.589 36.2048C102.42 36.2048 102.283 36.2048 102.176 36.22C102.069 36.2353 101.962 36.2659 101.87 36.2965C101.778 36.3271 101.702 36.3882 101.656 36.4494C101.61 36.5105 101.564 36.6023 101.518 36.7246C101.473 36.8469 101.457 36.9692 101.442 37.1221Z" fill="white"/>
<path d="M105.494 39.8432V35.5776H106.61C107.023 36.4185 107.421 37.3358 107.803 38.3143C108.139 37.4428 108.522 36.5255 108.98 35.5776H110.02V39.8432H109.24V36.6631C108.888 37.4276 108.491 38.3602 108.048 39.4457H107.421C106.886 38.0697 106.503 37.1371 106.274 36.6631V39.8432H105.494Z" fill="white"/>
<path d="M110.951 39.3845C110.951 39.2011 110.982 39.094 111.043 39.0329C111.104 38.9717 111.227 38.9564 111.425 38.9564C111.624 38.9564 111.746 38.987 111.823 39.0329C111.899 39.0787 111.915 39.2011 111.915 39.3845C111.915 39.5833 111.884 39.7056 111.808 39.7668C111.731 39.8279 111.609 39.8585 111.41 39.8585C111.227 39.8585 111.104 39.8279 111.043 39.7668C110.982 39.7056 110.951 39.5833 110.951 39.3845Z" fill="white"/>
<path d="M112.848 39.8432V35.5776H115.065C115.844 35.5776 116.242 36.0668 116.242 37.0453C116.242 37.2288 116.227 37.4123 116.181 37.5652C116.135 37.718 116.074 37.8709 115.982 38.0085C115.89 38.1461 115.768 38.2379 115.615 38.3143C115.462 38.3908 115.294 38.4213 115.095 38.4213H113.673V39.8432H112.848ZM113.658 37.7486H114.851C115.019 37.7486 115.156 37.6875 115.248 37.5652C115.34 37.4428 115.386 37.2594 115.386 37.0147C115.386 36.4949 115.217 36.235 114.881 36.235H113.673V37.7333L113.658 37.7486Z" fill="white"/>
<path d="M116.655 37.6879C116.655 37.4127 116.686 37.1834 116.731 36.9999C116.793 36.8164 116.884 36.6635 117.007 36.5259C117.144 36.3883 117.328 36.2966 117.557 36.2202C117.786 36.159 118.077 36.1131 118.429 36.0979V35.5627H119.239V36.0979C119.59 36.1131 119.881 36.159 120.126 36.2202C120.355 36.2813 120.554 36.3883 120.691 36.5259C120.829 36.6635 120.921 36.8164 120.982 36.9999C121.043 37.1834 121.074 37.4127 121.074 37.6879C121.074 37.9631 121.043 38.1925 120.982 38.3759C120.921 38.5594 120.829 38.7276 120.691 38.8499C120.554 38.9875 120.37 39.0792 120.126 39.1557C119.896 39.2168 119.59 39.2627 119.239 39.278V39.8284H118.429V39.278C118.077 39.2627 117.786 39.2168 117.557 39.1557C117.328 39.0945 117.144 38.9875 117.007 38.8499C116.869 38.7123 116.777 38.5594 116.731 38.3759C116.686 38.1925 116.655 37.9631 116.655 37.6879ZM117.465 37.7032C117.465 37.8408 117.465 37.9631 117.481 38.0548C117.481 38.1466 117.526 38.223 117.557 38.3148C117.588 38.4065 117.649 38.4524 117.725 38.4982C117.802 38.5441 117.893 38.5747 118 38.6053C118.107 38.6358 118.26 38.6511 118.429 38.6511V36.7859C118.214 36.7859 118.046 36.8164 117.924 36.847C117.802 36.8776 117.695 36.9387 117.633 37.0152C117.572 37.0916 117.526 37.1834 117.496 37.2904C117.465 37.3974 117.465 37.535 117.465 37.7185V37.7032ZM119.239 38.6358C119.422 38.6358 119.56 38.6205 119.682 38.59C119.805 38.5594 119.896 38.5288 119.973 38.4829C120.049 38.4371 120.11 38.3759 120.141 38.2995C120.171 38.223 120.202 38.1313 120.217 38.0396C120.217 37.9478 120.233 37.8255 120.233 37.6879C120.233 37.5044 120.233 37.3668 120.202 37.2598C120.171 37.1528 120.141 37.0611 120.064 36.9846C119.988 36.9082 119.896 36.847 119.759 36.8164C119.621 36.7859 119.453 36.7706 119.224 36.7553V38.6205L119.239 38.6358Z" fill="white"/>
<path d="M121.502 39.2014L122.587 37.9477L121.502 36.6634L121.93 36.2047L123.596 37.9171L121.945 39.6295L121.502 39.1861V39.2014ZM123.168 39.2014L124.254 37.9477L123.168 36.6634L123.596 36.2047L125.263 37.9171L123.611 39.6295L123.168 39.1861V39.2014Z" fill="white"/>
<path d="M65.1631 26.1138C65.0561 25.5787 64.995 24.9365 64.995 24.1874C64.995 23.4382 65.0561 22.8114 65.1631 22.2762C65.2702 21.7411 65.4383 21.2977 65.6524 20.9308C65.8664 20.5792 66.1569 20.2887 66.5086 20.0746C66.8602 19.8606 67.2577 19.723 67.7011 19.6312C68.1445 19.5395 68.649 19.4936 69.2453 19.4936C69.6581 19.4936 70.1168 19.5242 70.5907 19.5854C71.08 19.6465 71.4928 19.723 71.8444 19.83L71.4622 21.3436C71.2329 21.2519 70.9271 21.1907 70.5602 21.1296C70.1932 21.0684 69.8416 21.0531 69.5358 21.0531C69.1689 21.0531 68.8784 21.0531 68.649 21.0837C68.4197 21.1143 68.1904 21.1601 67.961 21.2366C67.7317 21.313 67.5635 21.4201 67.4259 21.5577C67.2883 21.6953 67.1813 21.8787 67.0896 22.1234C66.9978 22.368 66.9214 22.6432 66.8755 22.9795C66.8296 23.3159 66.8144 23.7134 66.8144 24.1874C66.8144 24.6613 66.8296 25.0589 66.8755 25.3952C66.9214 25.7316 66.9825 26.0221 67.0896 26.2667C67.1966 26.5113 67.3036 26.6948 67.4412 26.8477C67.5788 27.0006 67.747 27.1076 67.961 27.1993C68.1751 27.291 68.4044 27.3369 68.649 27.3675C68.8937 27.3981 69.1842 27.4134 69.5358 27.4134C69.8569 27.4134 70.1932 27.3828 70.5602 27.3369C70.9271 27.2911 71.2329 27.2146 71.4622 27.1229L71.8444 28.6365C71.4928 28.7282 71.08 28.8047 70.5907 28.8658C70.1015 28.927 69.6581 28.9576 69.23 28.9576C68.6338 28.9576 68.1139 28.9117 67.6858 28.8047C67.2424 28.7129 66.8449 28.5448 66.4933 28.3307C66.1416 28.1014 65.8664 27.8109 65.6371 27.4439C65.423 27.077 65.2549 26.6183 65.1479 26.0832L65.1631 26.1138Z" fill="white"/>
<path d="M72.0273 21.2059V19.7228H79.9011V21.2059H76.828V28.8045H75.1004V21.2059H72.0273Z" fill="white"/>
<path d="M81.0783 28.8045V19.7228H85.7721C87.4386 19.7228 88.2795 20.7625 88.2795 22.8265C88.2795 23.224 88.2336 23.591 88.1419 23.9426C88.0501 24.2942 87.8972 24.6 87.7138 24.8752C87.5303 25.1504 87.2551 25.3645 86.934 25.5327C86.613 25.6855 86.246 25.7773 85.8332 25.7773H82.8213V28.8045H81.0783ZM85.3287 24.3707C85.6956 24.3707 85.9708 24.2331 86.1543 23.9732C86.353 23.7133 86.4448 23.331 86.4448 22.8112C86.4448 21.7104 86.0778 21.1753 85.3593 21.1753H82.7907V24.3707H85.3287Z" fill="white"/>
<path d="M89.3962 24.187C89.3962 23.4532 89.4573 22.811 89.5796 22.2912C89.7019 21.7561 89.8701 21.3127 90.0842 20.9611C90.2982 20.6094 90.5887 20.3189 90.9557 20.1049C91.3226 19.8908 91.7201 19.7379 92.1635 19.6462C92.6069 19.5545 93.1267 19.5086 93.723 19.5086C94.3192 19.5086 94.8391 19.5545 95.2824 19.6462C95.7258 19.7379 96.1233 19.8908 96.4903 20.1049C96.8572 20.3189 97.1477 20.5941 97.3617 20.9611C97.5911 21.3127 97.7593 21.7561 97.8663 22.2912C97.9733 22.8263 98.0345 23.4532 98.0345 24.187C98.0345 25.1197 97.9427 25.8841 97.7746 26.511C97.6064 27.1378 97.3312 27.6271 96.949 27.994C96.5667 28.3609 96.1233 28.6056 95.6188 28.7585C95.099 28.9114 94.4721 28.9878 93.7077 28.9878C93.1114 28.9878 92.5916 28.9419 92.1482 28.8502C91.7048 28.7585 91.3073 28.6056 90.9404 28.3762C90.5887 28.1622 90.2982 27.8564 90.0689 27.4895C89.8395 27.1225 89.6714 26.6639 89.5643 26.1135C89.442 25.5631 89.3962 24.9209 89.3962 24.1717V24.187ZM91.2767 23.0251C91.2461 23.3461 91.2308 23.7437 91.2308 24.2176C91.2308 24.6916 91.2308 25.0891 91.2767 25.4102C91.3073 25.7312 91.3532 26.0217 91.4449 26.2663C91.5366 26.511 91.6131 26.7097 91.7354 26.8626C91.8577 27.0155 92.0106 27.1225 92.1941 27.2143C92.3928 27.306 92.6069 27.3672 92.8362 27.3977C93.0808 27.4283 93.3713 27.4436 93.7077 27.4436C94.044 27.4436 94.3498 27.4283 94.5791 27.3977C94.8238 27.3672 95.0378 27.306 95.2366 27.2143C95.4353 27.1225 95.5882 27.0002 95.7105 26.8626C95.8176 26.7097 95.9246 26.5263 96.001 26.2663C96.0775 26.0064 96.1386 25.7312 96.1692 25.4102C96.1998 25.0891 96.2151 24.6916 96.2151 24.2176C96.2151 23.7437 96.2151 23.3461 96.1692 23.0251C96.1386 22.704 96.0775 22.4288 96.001 22.1842C95.9246 21.9395 95.8176 21.7561 95.7105 21.6185C95.6035 21.4809 95.4353 21.3739 95.2366 21.2821C95.0378 21.1904 94.8238 21.1445 94.5944 21.1139C94.3651 21.0834 94.0746 21.0681 93.7077 21.0681C93.3407 21.0681 93.0502 21.0681 92.8209 21.1139C92.5916 21.1445 92.3775 21.1904 92.1788 21.2821C91.98 21.3739 91.8271 21.4809 91.7048 21.6185C91.5978 21.7561 91.4908 21.9395 91.4143 22.1842C91.3379 22.4288 91.2767 22.704 91.2461 23.0251H91.2767Z" fill="white"/>
<path d="M99.8686 28.8045V19.7228H101.535V26.5723C103.11 24.0343 104.455 21.7563 105.556 19.7228H107.62V28.8045H105.954V22.2455C104.639 24.6612 103.354 26.8475 102.101 28.8045H99.8686Z" fill="white"/>
<path d="M108.828 21.2059V19.7228H116.702V21.2059H113.629V28.8045H111.902V21.2059H108.828Z" fill="white"/>
<path d="M117.88 28.8045V19.7228H124.469V21.2059H119.592V23.2852H123.063V24.7682H119.592V27.3062H124.469V28.7892H117.88V28.8045Z" fill="white"/>
<path d="M125.203 28.8045C126.304 25.4256 126.916 22.3984 127.038 19.7228H133.108V28.8045H131.441V21.2059H128.613C128.521 22.3984 128.338 23.6674 128.062 24.9975C127.787 26.3277 127.436 27.5967 127.007 28.8045H125.188H125.203Z" fill="white"/>
<path d="M135.432 28.8045V19.7228H137.16V22.9335H140.309C140.737 22.9335 141.12 23.01 141.425 23.1629C141.746 23.3157 141.991 23.5298 142.174 23.7897C142.358 24.0649 142.496 24.3707 142.587 24.7223C142.679 25.074 142.725 25.4562 142.725 25.8843C142.725 26.8322 142.526 27.5508 142.144 28.0553C141.762 28.5599 141.165 28.8045 140.37 28.8045H135.432ZM137.16 27.3521H139.927C140.263 27.3521 140.508 27.2297 140.661 26.9851C140.814 26.7405 140.89 26.3736 140.89 25.8843C140.89 24.8905 140.554 24.4013 139.881 24.4013H137.16V27.3521Z" fill="white"/>
<path d="M144.085 26.1138C143.978 25.5787 143.917 24.9365 143.917 24.1874C143.917 23.4382 143.978 22.8114 144.085 22.2762C144.192 21.7411 144.361 21.2977 144.575 20.9308C144.789 20.5792 145.079 20.2887 145.431 20.0746C145.782 19.8606 146.18 19.723 146.623 19.6312C147.067 19.5395 147.571 19.4936 148.183 19.4936C148.596 19.4936 149.054 19.5242 149.528 19.5854C150.017 19.6465 150.43 19.723 150.782 19.83L150.4 21.3436C150.17 21.2519 149.865 21.1907 149.498 21.1296C149.131 21.0684 148.779 21.0531 148.473 21.0531C148.106 21.0531 147.816 21.0531 147.587 21.0837C147.357 21.1143 147.128 21.1601 146.899 21.2366C146.669 21.313 146.501 21.4201 146.363 21.5577C146.226 21.6953 146.119 21.8787 146.027 22.1234C145.92 22.3527 145.859 22.6432 145.813 22.9795C145.767 23.3159 145.752 23.7134 145.752 24.1874C145.752 24.6613 145.767 25.0589 145.813 25.3952C145.859 25.7316 145.92 26.0221 146.027 26.2667C146.134 26.5113 146.241 26.6948 146.379 26.8477C146.516 27.0006 146.684 27.1076 146.899 27.1993C147.113 27.291 147.342 27.3369 147.587 27.3675C147.831 27.3981 148.122 27.4134 148.473 27.4134C148.794 27.4134 149.131 27.3828 149.498 27.3369C149.865 27.2911 150.17 27.2146 150.4 27.1229L150.782 28.6365C150.43 28.7282 150.017 28.8047 149.528 28.8658C149.039 28.927 148.596 28.9576 148.167 28.9576C147.571 28.9576 147.051 28.9117 146.608 28.8047C146.165 28.7129 145.767 28.5448 145.415 28.3307C145.064 28.1167 144.789 27.8109 144.559 27.4439C144.345 27.077 144.177 26.6183 144.07 26.0832L144.085 26.1138Z" fill="white"/>
<path d="M150.966 21.2059V19.7228H158.84V21.2059H155.767V28.8045H154.039V21.2059H150.966Z" fill="white"/>
<path d="M160.017 28.8045V19.7228H164.909C165.353 19.7228 165.72 19.7687 166.026 19.8757C166.331 19.9827 166.561 20.1203 166.714 20.3191C166.866 20.5179 166.989 20.7472 167.05 20.9918C167.111 21.2364 167.142 21.5422 167.142 21.8939C167.142 22.1538 167.142 22.3678 167.096 22.5666C167.065 22.75 167.019 22.9335 166.943 23.1017C166.866 23.2699 166.759 23.4228 166.622 23.5451C166.484 23.6521 166.301 23.7591 166.071 23.8356C165.842 23.912 165.567 23.9732 165.246 24.0037C165.659 24.019 166.01 24.0802 166.285 24.2025C166.561 24.3095 166.775 24.4777 166.928 24.6918C167.08 24.9058 167.172 25.1351 167.233 25.3951C167.294 25.655 167.325 25.9607 167.325 26.3277C167.325 27.1992 167.126 27.826 166.729 28.2235C166.331 28.621 165.75 28.8198 165.001 28.8198H160.047L160.017 28.8045ZM161.729 23.331H164.512C165.032 23.331 165.292 22.9641 165.292 22.2455C165.292 21.8786 165.23 21.6034 165.123 21.4352C165.001 21.267 164.802 21.1753 164.512 21.1753H161.729V23.331ZM161.729 27.3521H164.588C165.169 27.3521 165.46 26.924 165.46 26.0831C165.46 25.1963 165.154 24.7529 164.542 24.7529H161.729V27.3673V27.3521Z" fill="white"/>
<path d="M168.027 28.8049C168.486 27.4747 169.006 25.9764 169.602 24.3099C170.198 22.6434 170.764 21.1145 171.36 19.7385H174.051C174.525 21.2368 175.06 22.8269 175.672 24.5087C176.283 26.1905 176.834 27.6276 177.323 28.8049H175.427C175.014 27.7958 174.724 27.0467 174.556 26.5421H170.581C170.367 27.2148 170.122 27.964 169.877 28.8049H168.027ZM170.978 25.0591H174.005C173.531 23.6984 173.103 22.3988 172.736 21.1757H172.385C171.957 22.2612 171.483 23.5608 170.978 25.0591Z" fill="white"/>
<path d="M64.765 10.7488C64.765 10.1678 64.8262 9.69385 64.9332 9.29634C65.0402 8.91411 65.2543 8.57775 65.5295 8.28726C65.82 7.99677 66.2022 7.78272 66.6915 7.64512C67.1807 7.50752 67.7923 7.41579 68.5414 7.36992V6.22324H70.2691V7.36992C71.0183 7.4005 71.6451 7.49223 72.1497 7.64512C72.6542 7.78272 73.0364 7.99677 73.3422 8.28726C73.6327 8.56246 73.8467 8.89882 73.969 9.29634C74.0914 9.69385 74.1525 10.1678 74.1525 10.7488C74.1525 11.3298 74.0914 11.819 73.969 12.2165C73.8467 12.6141 73.648 12.9504 73.3422 13.2409C73.0517 13.5314 72.6542 13.7454 72.1497 13.883C71.6451 14.0207 71.0336 14.1124 70.2691 14.1582V15.3202H68.5414V14.1582C67.7923 14.1124 67.1807 14.0359 66.6915 13.883C66.2022 13.7454 65.82 13.5314 65.5295 13.2409C65.239 12.9504 65.0402 12.6141 64.9332 12.2165C64.8262 11.819 64.765 11.3298 64.765 10.7488ZM66.4927 10.7641C66.4927 11.0546 66.4927 11.2992 66.5386 11.498C66.5691 11.6967 66.6303 11.8649 66.7067 12.0331C66.7832 12.2013 66.9055 12.3236 67.0584 12.4153C67.2113 12.507 67.41 12.5835 67.6547 12.6446C67.8993 12.7058 68.1898 12.7364 68.5414 12.7517V8.7918C68.0981 8.80709 67.7311 8.85295 67.4712 8.9294C67.196 9.00584 66.9972 9.12816 66.8443 9.29634C66.6915 9.46452 66.5997 9.66327 66.5539 9.87732C66.508 10.1067 66.4774 10.3971 66.4774 10.7794L66.4927 10.7641ZM70.2691 12.7517C70.6513 12.7517 70.9571 12.7058 71.217 12.6599C71.4769 12.6141 71.6757 12.5376 71.8286 12.4459C71.9815 12.3541 72.1191 12.2318 72.1955 12.0637C72.2872 11.8955 72.3331 11.712 72.3637 11.5285C72.3943 11.3298 72.4096 11.0852 72.4096 10.7947C72.4096 10.4124 72.379 10.1067 72.3331 9.87732C72.2872 9.64798 72.1802 9.46452 72.0273 9.28105C71.8744 9.11287 71.6604 8.99056 71.3699 8.91411C71.0794 8.83767 70.7125 8.80709 70.2385 8.7918V12.7669L70.2691 12.7517Z" fill="white"/>
<path d="M75.8495 15.3198V6.23809H77.516V13.0876C79.0908 10.5496 80.4362 8.27153 81.5371 6.23809H83.6011V15.3198H81.9346V8.76078C80.6197 11.1764 79.3354 13.3628 78.0817 15.3198H75.8495Z" fill="white"/>
<path d="M85.9248 15.3198V6.23809H87.6525V9.72399H91.5359V6.23809H93.2024V15.3198H91.5359V11.2988H87.6525V15.3198H85.9248Z" fill="white"/>
<path d="M94.2576 15.3202C94.7163 13.99 95.2361 12.4917 95.8324 10.8252C96.4286 9.15868 96.9943 7.62977 97.5906 6.25376H100.281C100.755 7.75208 101.291 9.34214 101.902 11.0239C102.514 12.7057 103.064 14.1429 103.553 15.3202H101.658C101.245 14.3111 100.954 13.5619 100.786 13.0574H96.8109C96.5968 13.7301 96.3522 14.4793 96.1076 15.3202H94.2576ZM97.2084 11.5743H100.236C99.7617 10.2136 99.3336 8.91405 98.9666 7.69093H98.615C98.1869 8.77645 97.7129 10.076 97.2084 11.5743Z" fill="white"/>
<path d="M104.394 15.3198V6.23809H106.122V9.72399H110.005V6.23809H111.672V15.3198H110.005V11.2988H106.122V15.3198H104.394Z" fill="white"/>
<path d="M113.689 12.6291C113.582 12.0939 113.521 11.4518 113.521 10.7026C113.521 9.95348 113.582 9.32663 113.689 8.79151C113.796 8.25639 113.965 7.81301 114.179 7.44608C114.393 7.09443 114.683 6.80394 115.035 6.58989C115.387 6.37584 115.784 6.23824 116.227 6.14651C116.671 6.05477 117.175 6.00891 117.772 6.00891C118.184 6.00891 118.643 6.03949 119.117 6.10064C119.606 6.1618 120.019 6.23824 120.371 6.34527L119.989 7.85888C119.759 7.76715 119.453 7.70599 119.086 7.64483C118.72 7.58368 118.368 7.56839 118.062 7.56839C117.695 7.56839 117.405 7.56839 117.175 7.59897C116.946 7.62955 116.717 7.67541 116.487 7.75186C116.258 7.8283 116.09 7.93533 115.952 8.07293C115.815 8.21053 115.708 8.394 115.616 8.63862C115.524 8.88325 115.448 9.15845 115.402 9.49481C115.356 9.83117 115.341 10.2287 115.341 10.7026C115.341 11.1766 115.356 11.5741 115.402 11.9105C115.448 12.2468 115.509 12.5373 115.616 12.7819C115.723 13.0266 115.83 13.21 115.967 13.3629C116.105 13.5158 116.273 13.6228 116.487 13.7146C116.701 13.8063 116.931 13.8522 117.175 13.8828C117.42 13.9133 117.71 13.9286 118.062 13.9286C118.383 13.9286 118.72 13.8981 119.086 13.8522C119.453 13.8063 119.759 13.7299 119.989 13.6381L120.371 15.1518C120.019 15.2435 119.606 15.3199 119.117 15.3811C118.628 15.4422 118.184 15.4728 117.756 15.4728C117.16 15.4728 116.64 15.427 116.212 15.3199C115.769 15.2282 115.371 15.06 115.02 14.846C114.668 14.6166 114.393 14.3261 114.163 13.9592C113.949 13.5923 113.781 13.1336 113.674 12.5985L113.689 12.6291Z" fill="white"/>
<path d="M121.687 15.3198V6.23809H123.353V13.0876C124.928 10.5496 126.274 8.27153 127.374 6.23809H129.438V15.3198H127.772V8.76078C126.457 11.1764 125.173 13.3628 123.919 15.3198H121.687Z" fill="white"/>
<path d="M131.762 15.3198V6.23809H136.456C138.122 6.23809 138.963 7.27774 138.963 9.34176C138.963 9.73927 138.917 10.1062 138.826 10.4579C138.734 10.8095 138.581 11.1153 138.398 11.3905C138.214 11.6657 137.939 11.8797 137.618 12.0479C137.297 12.2008 136.93 12.2925 136.517 12.2925H133.505V15.3198H131.762ZM136.012 10.886C136.379 10.886 136.655 10.7484 136.838 10.4884C137.037 10.2285 137.129 9.8463 137.129 9.32647C137.129 8.22566 136.762 7.69054 136.043 7.69054H133.474V10.886H136.012Z" fill="white"/>
<path d="M140.078 10.7023C140.078 9.96843 140.14 9.32629 140.262 8.80646C140.384 8.27134 140.552 7.82796 140.766 7.47632C140.981 7.12467 141.271 6.83418 141.638 6.62013C142.005 6.40608 142.402 6.25319 142.846 6.16146C143.289 6.06972 143.809 6.02386 144.405 6.02386C145.002 6.02386 145.521 6.06972 145.965 6.16146C146.408 6.25319 146.806 6.40608 147.173 6.62013C147.54 6.83418 147.83 7.10938 148.044 7.47632C148.273 7.82796 148.442 8.27134 148.549 8.80646C148.656 9.34158 148.717 9.96843 148.717 10.7023C148.717 11.6349 148.625 12.3994 148.457 13.0262C148.289 13.6531 148.014 14.1423 147.631 14.5093C147.249 14.8762 146.806 15.1208 146.301 15.2737C145.781 15.4266 145.154 15.5031 144.39 15.5031C143.794 15.5031 143.274 15.4572 142.831 15.3655C142.387 15.2737 141.99 15.1208 141.623 14.8915C141.271 14.6775 140.981 14.3717 140.751 14.0047C140.522 13.6378 140.354 13.1791 140.247 12.6287C140.124 12.0783 140.078 11.4362 140.078 10.687V10.7023ZM141.959 9.54034C141.928 9.86141 141.913 10.2589 141.913 10.7329C141.913 11.2068 141.928 11.6044 141.959 11.9254C141.99 12.2465 142.035 12.537 142.127 12.7816C142.204 13.0262 142.295 13.225 142.418 13.3779C142.525 13.5308 142.693 13.6378 142.876 13.7295C143.075 13.8213 143.289 13.8824 143.519 13.913C143.763 13.9436 144.054 13.9589 144.39 13.9589C144.726 13.9589 145.032 13.9436 145.261 13.913C145.506 13.8824 145.72 13.8213 145.919 13.7295C146.118 13.6378 146.271 13.5155 146.393 13.3779C146.5 13.225 146.607 13.0415 146.683 12.7816C146.76 12.537 146.821 12.2465 146.852 11.9254C146.882 11.6044 146.897 11.2068 146.897 10.7329C146.897 10.2589 146.882 9.86141 146.852 9.54034C146.821 9.21927 146.76 8.94406 146.683 8.69944C146.607 8.45481 146.5 8.27135 146.393 8.13374C146.286 7.99614 146.118 7.88912 145.919 7.79738C145.72 7.70565 145.506 7.65978 145.277 7.62921C145.047 7.59863 144.757 7.58334 144.39 7.58334C144.023 7.58334 143.733 7.58334 143.503 7.62921C143.274 7.65978 143.06 7.70565 142.861 7.79738C142.662 7.88912 142.509 7.99614 142.387 8.13374C142.28 8.27135 142.173 8.45481 142.097 8.69944C142.02 8.94406 141.959 9.21927 141.928 9.54034H141.959Z" fill="white"/>
<path d="M150.552 15.3198V6.23809H155.445C155.888 6.23809 156.255 6.28395 156.561 6.39098C156.867 6.498 157.096 6.6356 157.249 6.83436C157.402 7.03312 157.524 7.26245 157.585 7.50708C157.646 7.7517 157.677 8.05748 157.677 8.40913C157.677 8.66904 157.677 8.88309 157.631 9.08185C157.601 9.26531 157.555 9.44878 157.478 9.61696C157.402 9.78514 157.295 9.93803 157.157 10.0603C157.02 10.1674 156.836 10.2744 156.607 10.3508C156.377 10.4273 156.102 10.4884 155.781 10.519C156.194 10.5343 156.546 10.5955 156.821 10.7178C157.096 10.8248 157.31 10.993 157.463 11.207C157.616 11.4211 157.708 11.6504 157.769 11.9103C157.83 12.1702 157.861 12.476 157.861 12.8429C157.861 13.7144 157.662 14.3413 157.264 14.7388C156.867 15.1363 156.286 15.3351 155.537 15.3351H150.583L150.552 15.3198ZM152.28 9.8463H155.063C155.582 9.8463 155.842 9.47936 155.842 8.76078C155.842 8.39384 155.781 8.11864 155.674 7.95046C155.552 7.78228 155.353 7.69054 155.063 7.69054H152.28V9.8463ZM152.28 13.852H155.139C155.72 13.852 156.011 13.4239 156.011 12.583C156.011 11.6963 155.705 11.2529 155.093 11.2529H152.28V13.8673V13.852Z" fill="white"/>
<path d="M158.563 15.3202C159.021 13.99 159.541 12.4917 160.137 10.8252C160.734 9.15868 161.299 7.62977 161.896 6.25376H164.587C165.06 7.75208 165.596 9.34214 166.207 11.0239C166.819 12.7057 167.369 14.1429 167.858 15.3202H165.963C165.55 14.3111 165.259 13.5619 165.091 13.0574H161.116C160.902 13.7301 160.657 14.4793 160.413 15.3202H158.563ZM161.513 11.5743H164.541C164.067 10.2136 163.639 8.91405 163.272 7.69093H162.92C162.492 8.77645 162.018 10.076 161.513 11.5743Z" fill="white"/>
<path d="M168.701 15.3198V6.23809H170.428V9.72399H174.312V6.23809H175.978V15.3198H174.312V11.2988H170.428V15.3198H168.701Z" fill="white"/>
<path d="M178.286 15.3198V6.23809H179.953V13.0876C181.527 10.5496 182.873 8.27153 183.974 6.23809H186.038V15.3198H184.371V8.76078C183.056 11.1764 181.772 13.3628 180.518 15.3198H178.286Z" fill="white"/>
<path d="M188.376 15.3198V6.23809H194.966V7.72112H190.089V9.80043H193.559V11.2835H190.089V13.8214H194.966V15.3045H188.376V15.3198Z" fill="white"/>
<path d="M52.2275 2.22513e-06H50.1328V35.5164H52.2275V2.22513e-06Z" fill="#95C123"/>
<path d="M12.537 31.3427H2.0946V27.1688H12.537V31.3427ZM0 35.5166H2.0946V33.422H14.6316V25.0589H0V35.5166Z" fill="white"/>
<path d="M33.4214 31.3423H27.1529V27.1684H33.4214V31.3423ZM18.8051 27.1684H25.0736V31.3423H18.8051V27.1684ZM16.7105 25.0738V33.4369H25.0736V35.5315H27.1682V33.4369H35.5313V25.0738H16.7105Z" fill="white"/>
<path d="M35.5164 20.9H0V22.9946H35.5164V20.9Z" fill="white"/>
<path d="M32.3824 0L29.2481 3.13425V0H26.1139L20.885 5.22885V18.8055H22.9796V6.2685L27.1535 2.0946V18.8055H29.2481V6.2685L33.422 2.0946V18.8055H35.5166V0H32.3824Z" fill="white"/>
<path d="M6.26851 2.0946V16.7262H2.0946V6.28379L6.26851 2.10989V2.0946ZM0 18.8055H8.3631V0H5.22885L0 5.22885V18.8055Z" fill="white"/>
<path d="M12.5371 2.0946H16.711V16.7262H12.5371V2.0946ZM18.8056 0H10.4425V18.8055H18.8056V0Z" fill="white"/>
</svg>
