<svg width="115" height="70" viewBox="0 0 115 70" fill="none" xmlns="http://www.w3.org/2000/svg">
<path d="M48.8773 41.061C52.0241 45.8646 55.1395 50.6223 58.296 55.4429C58.0638 55.4574 57.9186 55.4744 57.7735 55.4744C55.1637 55.4744 52.5538 55.4671 49.944 55.484C49.5691 55.484 49.3635 55.3559 49.1651 55.0487C46.386 50.7336 43.5972 46.4234 40.8035 42.118C40.3488 41.4165 40.5858 41.5447 39.7054 41.5326C39.345 41.5278 38.9846 41.5399 38.6242 41.5471C38.5952 41.5471 38.5661 41.5762 38.4742 41.6221V55.4429H30.6786V17.5942C30.8503 17.5821 31.0003 17.5627 31.1478 17.5627C35.4411 17.5627 39.7344 17.5434 44.0277 17.57C46.2046 17.5821 48.3355 17.928 50.36 18.7745C53.9083 20.2548 55.9909 22.9324 56.731 26.6718C57.1688 28.8874 57.1737 31.1102 56.6488 33.3137C55.7417 37.1305 53.3835 39.6049 49.6707 40.8167C49.4288 40.8965 49.1845 40.9691 48.8797 41.0634L48.8773 41.061ZM39.0862 34.7722C40.5108 34.7722 41.9355 34.7819 43.3577 34.7674C43.8535 34.7625 44.3542 34.7335 44.8428 34.6561C45.9313 34.4844 46.9254 34.078 47.7405 33.3161C48.8555 32.276 49.3006 30.9578 49.2377 29.4654C49.153 27.4192 48.2073 25.9099 46.3473 25.0149C45.4669 24.5916 44.526 24.4272 43.5512 24.4272C42.008 24.4272 40.4624 24.4272 38.9193 24.4272C38.7862 24.4272 38.6556 24.4489 38.5032 24.4634V34.7722H39.0862Z" fill="white"/>
<path d="M62.6715 17.4176H84.7572V24.3038H70.4139V32.9944H84.5298V39.9169C84.3048 39.929 84.0896 39.9508 83.8719 39.9508C79.6125 39.9508 75.3554 39.9508 71.096 39.9508H70.4115V48.5083H84.7572V55.4405H62.7102C62.6062 55.0849 62.5675 18.211 62.6739 17.4176H62.6715Z" fill="white"/>
<path d="M30.3158 6.37604C30.4198 6.74611 30.5262 7.12344 30.6278 7.50319C30.6544 7.59994 30.6641 7.70152 30.6907 7.85149C30.3641 7.96275 30.0473 8.07401 29.728 8.17802C25.5895 9.53978 21.5986 11.2353 17.8253 13.4219C14.4366 15.3859 11.2971 17.6789 8.57111 20.5089C6.56838 22.589 4.85348 24.8771 3.61991 27.4991C0.97137 33.1324 0.981045 38.7778 3.62959 44.4062C5.11229 47.5578 7.25047 50.2282 9.75872 52.6155C12.5887 55.31 15.7742 57.5086 19.1895 59.388C24.1068 62.0946 29.3216 64.0441 34.7373 65.4712C39.4804 66.7217 44.2986 67.5344 49.1821 67.9746C54.2034 68.4245 59.232 68.4898 64.2606 68.1439C71.9208 67.619 79.4093 66.2138 86.6583 63.6329C91.5829 61.8793 96.256 59.625 100.535 56.5968C103.367 54.5916 105.936 52.301 108.081 49.5582C110.106 46.9725 111.642 44.1353 112.411 40.9232C113.497 36.4001 112.919 32.0584 110.909 27.8909C109.612 25.2037 107.842 22.8502 105.764 20.7241C102.762 17.6499 99.2964 15.1948 95.5545 13.1171C92.0449 11.17 88.3684 9.60993 84.5589 8.35217C84.3146 8.27235 84.0679 8.20463 83.8211 8.12723C83.7945 8.11755 83.7776 8.07885 83.7316 8.02564C83.7776 7.88293 83.8211 7.72087 83.8792 7.56366C84.0001 7.22745 84.1283 6.89608 84.2662 6.52601C84.6096 6.63969 84.9168 6.73644 85.2216 6.83803C90.3373 8.55535 95.2207 10.7661 99.7462 13.7291C103.128 15.9422 106.204 18.511 108.79 21.6336C110.914 24.1975 112.595 27.0153 113.601 30.2057C115.217 35.3286 114.856 40.3379 112.653 45.2213C111.083 48.7019 108.766 51.6431 106.006 54.2481C102.707 57.3635 98.9553 59.8234 94.9257 61.8745C89.7108 64.5303 84.2106 66.3976 78.5192 67.711C73.7252 68.8187 68.8659 69.496 63.9559 69.8056C59.5948 70.0789 55.2338 70.0644 50.8801 69.7597C42.8909 69.1985 35.0928 67.6916 27.5511 64.9511C22.5419 63.1298 17.7866 60.8102 13.4207 57.7263C9.93045 55.2616 6.81993 52.4002 4.3528 48.8882C2.44439 46.1743 1.05845 43.2234 0.407799 39.9557C-0.501654 35.4012 0.129642 31.0377 2.10577 26.8581C3.7215 23.4404 6.04351 20.5476 8.79848 17.9861C12.146 14.8731 15.9435 12.4205 20.0167 10.3767C23.1538 8.80206 26.407 7.5177 29.7474 6.44619C29.878 6.40507 30.011 6.36879 30.144 6.34218C30.19 6.33251 30.2408 6.35911 30.3206 6.37604H30.3158Z" fill="white"/>
<path d="M31.0486 9.0581C31.1043 9.20564 31.1526 9.329 31.2083 9.47171C31.143 9.51766 31.0946 9.57088 31.0341 9.59264C30.2069 9.87564 29.3748 10.1465 28.55 10.4368C24.1431 11.9896 19.9344 13.9464 16.0354 16.5393C12.9708 18.5783 10.1965 20.9439 7.9156 23.8537C6.11605 26.1491 4.73493 28.6646 3.99721 31.5018C2.88458 35.7636 3.35866 39.8779 5.2332 43.8447C6.39662 46.307 7.993 48.4694 9.87238 50.4286C13.0821 53.7737 16.8602 56.3473 20.9503 58.4782C26.1119 61.1679 31.5759 63.0327 37.2358 64.3461C41.5581 65.3499 45.9361 65.9957 50.36 66.3392C55.0766 66.7044 59.7956 66.7262 64.5146 66.39C71.0646 65.9231 77.4936 64.7984 83.7655 62.8223C88.9489 61.1872 93.8928 59.0321 98.4377 56.0207C101.522 53.9793 104.31 51.6065 106.603 48.6822C108.425 46.3578 109.818 43.8133 110.553 40.9374C111.632 36.7069 111.16 32.6265 109.303 28.6936C107.936 25.7983 105.987 23.3288 103.686 21.1229C100.675 18.2349 97.238 15.9491 93.547 14.0311C90.6154 12.5072 87.5775 11.2374 84.4403 10.2046C84.0195 10.0667 83.6058 9.89983 83.156 9.73293C83.1995 9.57329 83.2358 9.43059 83.2745 9.28546C83.347 9.28062 83.4003 9.26369 83.4438 9.27579C89.8438 11.3825 95.9222 14.1302 101.268 18.3147C104.156 20.5762 106.69 23.1691 108.623 26.3111C110.089 28.6936 111.085 31.2478 111.487 34.0294C111.988 37.493 111.448 40.8043 110.065 43.9922C108.889 46.7037 107.184 49.0595 105.147 51.1832C102.218 54.2381 98.8029 56.6424 95.1022 58.6572C90.3711 61.2332 85.3522 63.0763 80.147 64.4235C75.8174 65.5434 71.4226 66.3005 66.9696 66.7213C62.6908 67.1253 58.4048 67.3018 54.1067 67.1156C47.7405 66.8374 41.4517 66.0175 35.2742 64.4283C29.4958 62.9408 23.9423 60.8703 18.7541 57.8928C15.2203 55.8659 11.9622 53.4714 9.17578 50.4769C6.88279 48.0122 5.03002 45.2621 3.91981 42.0621C2.12509 36.8835 2.64029 31.8839 5.17999 27.0706C6.68929 24.2116 8.75733 21.7904 11.1495 19.6378C14.1197 16.965 17.4576 14.8389 21.0132 13.0442C24.1939 11.4382 27.5076 10.1683 30.8987 9.0847C30.9301 9.07503 30.9664 9.07745 31.0535 9.06777L31.0486 9.0581Z" fill="white"/>
<path d="M54.397 8.00609C54.4091 7.84404 54.397 7.75696 54.4236 7.6844C54.6848 6.90556 54.9509 6.12914 55.2218 5.35272C55.3645 4.93669 55.3669 4.92459 55.0234 4.67062C54.3486 4.16994 53.6713 3.6741 52.9941 3.17583C52.9385 3.13471 52.8756 3.10811 52.8151 3.07424C52.832 3.03554 52.8465 2.99684 52.8635 2.95814H55.9764C56.3126 1.93743 56.6295 0.969923 56.9488 0C56.9826 0 57.0165 0.00483752 57.0503 0.00725628C57.1108 0.19592 57.1713 0.387002 57.2318 0.575665C57.4591 1.27711 57.6937 1.97613 57.9066 2.67999C57.9864 2.94121 58.1388 3.02103 58.3976 3.01861C59.1861 3.00894 59.9771 3.01861 60.7656 3.01861C60.8792 3.01861 60.9905 3.03071 61.213 3.04522C61.0002 3.21695 60.8792 3.32579 60.7462 3.42013C60.1754 3.83132 59.6046 4.24009 59.0337 4.65128C58.7741 4.83833 58.6951 5.09068 58.7967 5.40835C59.0676 6.23798 59.3409 7.06762 59.6408 7.97949C59.0845 7.75454 58.7265 7.36512 58.3057 7.07729C57.8824 6.78704 57.4688 6.48228 57.0141 6.15816C56.1578 6.76285 55.3088 7.36029 54.3994 8.00126L54.397 8.00609Z" fill="white"/>
<path d="M45.9699 0.551477C46.2892 1.32548 46.6109 2.09948 46.9302 2.87349C46.9761 2.98475 47.0197 3.09601 47.0656 3.20727C47.1333 3.37417 47.2494 3.42738 47.4308 3.41045C48.3669 3.32821 49.303 3.25565 50.3334 3.17341C50.2124 3.3137 50.1544 3.40319 50.077 3.47092C49.5327 3.94258 48.9813 4.40698 48.4371 4.87864C47.8517 5.38416 47.9122 5.2221 48.1952 5.93805C48.4225 6.5113 48.6741 7.07487 48.9135 7.64328C48.9861 7.81501 49.049 7.98916 49.1578 8.26974C48.5822 8.03512 48.1782 7.70617 47.7356 7.44252C47.2978 7.17888 46.8576 6.91765 46.4077 6.64675C45.5853 7.32884 44.7871 7.99158 43.9889 8.65432C43.9648 8.63497 43.9382 8.61562 43.914 8.59385C44.1268 7.71584 44.3372 6.83783 44.5525 5.96224C44.6589 5.5317 44.6638 5.52687 44.2986 5.30192C43.6721 4.91492 43.0384 4.53759 42.4095 4.15301C42.2716 4.06835 42.1386 3.96918 41.9137 3.81438C42.5329 3.7515 43.0335 3.69586 43.5366 3.64991C43.9285 3.61363 44.3227 3.59186 44.7146 3.56525C45.1016 3.53864 45.1233 3.52413 45.2225 3.12504C45.3991 2.40908 45.5684 1.69313 45.7425 0.979597C45.7788 0.834471 45.8272 0.691765 45.8683 0.546639C45.9022 0.546639 45.9361 0.551477 45.9699 0.553895V0.551477Z" fill="white"/>
<path d="M67.3784 6.77253C66.4351 7.30707 65.5402 7.81259 64.5436 8.37375C64.9379 7.29256 65.4386 6.36859 65.8498 5.35755C65.0733 4.65853 64.2993 3.96435 63.4455 3.1976C63.6487 3.1976 63.7551 3.18793 63.8567 3.1976C64.6742 3.27742 65.4942 3.3524 66.3117 3.44673C66.602 3.4806 66.7495 3.36933 66.8584 3.11053C67.1341 2.44537 67.4268 1.78746 67.717 1.12956C67.7848 0.974761 67.8646 0.827217 67.9855 0.580504C68.0412 0.776423 68.0774 0.878011 68.1016 0.984436C68.2613 1.73909 68.4233 2.49374 68.5781 3.24839C68.6749 3.7128 68.67 3.72005 69.1707 3.7781C70.039 3.87969 70.905 3.96918 71.7951 4.10705C70.9485 4.69723 70.0342 5.17131 69.132 5.73004C69.3521 6.76285 69.5674 7.77631 69.7827 8.79219C69.7561 8.8067 69.7294 8.82363 69.7028 8.83815C68.9385 8.15848 68.1742 7.47881 67.3808 6.77253H67.3784Z" fill="white"/>
<path d="M79.5109 5.71088C80.5607 5.92615 81.5499 6.12932 82.6698 6.36152C81.6515 6.90574 80.6768 7.2613 79.7504 7.75473C79.8689 8.79479 79.9826 9.81067 80.1132 10.9644C79.2763 10.1783 78.6668 9.33901 77.8976 8.61097C76.9277 9.03909 75.9747 9.45995 74.9467 9.91468C75 9.76955 75.0193 9.68248 75.0628 9.6075C75.4692 8.89396 75.8828 8.18285 76.2843 7.46689C76.5286 7.03394 76.5214 7.0291 76.1972 6.67838C75.6724 6.11239 75.1475 5.54882 74.625 4.98041C74.5573 4.90785 74.5017 4.82561 74.4751 4.65871C75.4813 4.85705 76.4875 5.05539 77.5227 5.26099C78.0306 4.36121 78.5313 3.47352 79.0344 2.58584C79.0707 2.58826 79.1046 2.59309 79.1409 2.59551C79.2642 3.61865 79.3852 4.64178 79.5134 5.70604L79.5109 5.71088Z" fill="white"/>
<path d="M39.0765 9.49604C38.3073 9.12355 37.5357 8.75106 36.7666 8.37374C36.3118 8.15363 36.3215 8.15847 35.9418 8.52128C35.3347 9.10178 34.713 9.66777 34.1132 10.2289C34.1108 10.1999 34.0745 10.0765 34.089 9.95561C34.1664 9.32673 34.2583 8.70027 34.3405 8.07381C34.3768 7.80533 34.4034 7.53443 34.4349 7.23934C33.4867 6.77977 32.5652 6.33714 31.646 5.89209C31.6509 5.85581 31.6581 5.81953 31.663 5.78325C32.6643 5.58975 33.6633 5.39625 34.6888 5.19791C34.8316 4.17719 34.9718 3.18066 35.1291 2.04868C35.7458 3.0186 36.1619 3.96192 36.7133 4.87137C37.7631 4.67304 38.7983 4.4747 39.836 4.27878C39.8529 4.30055 39.8698 4.32232 39.8892 4.34408C39.5433 4.71174 39.1974 5.08181 38.8467 5.44946C38.5516 5.75906 38.2493 6.06624 37.9542 6.37584C37.6712 6.67577 37.6712 6.67819 37.8647 7.03133C38.2178 7.67955 38.5734 8.32536 38.9265 8.97117C39.0063 9.11872 39.0789 9.26868 39.1539 9.41622C39.1273 9.44283 39.1007 9.46702 39.0716 9.49362L39.0765 9.49604Z" fill="white"/>
</svg>
